<?xml version="1.0" standalone="no"?>
<!DOCTYPE svg PUBLIC "-//W3C//DTD SVG 20010904//EN"
 "http://www.w3.org/TR/2001/REC-SVG-20010904/DTD/svg10.dtd">
<svg version="1.0" xmlns="http://www.w3.org/2000/svg"
 width="900.000000pt" height="675.000000pt" viewBox="0 0 900.000000 675.000000"
 preserveAspectRatio="xMidYMid meet">
<metadata>
Created by potrace 1.10, written by Peter Selinger 2001-2011
</metadata>
<g transform="translate(0.000000,675.000000) scale(0.100000,-0.100000)"
fill="#000000" stroke="none">
<path d="M6108 5653 c-1 -5 -21 -17 -43 -28 -22 -10 -48 -26 -58 -34 -15 -12
-22 -13 -37 -3 -17 10 -28 7 -72 -20 -29 -18 -54 -36 -56 -40 -2 -4 -12 -8
-22 -8 -10 0 -25 -6 -32 -12 -49 -47 -121 -108 -127 -108 -4 0 -6 14 -3 30 3
18 0 30 -7 30 -6 0 -50 -41 -98 -91 -48 -50 -88 -87 -89 -82 -1 4 -5 20 -8 36
-9 38 -29 34 -49 -10 -33 -75 -143 -223 -166 -223 -5 0 -12 7 -15 16 -10 25
-55 9 -94 -33 -27 -28 -36 -33 -43 -22 -6 11 -11 11 -21 1 -6 -6 -20 -12 -29
-12 -14 0 -16 7 -12 40 7 49 -5 51 -47 10 -17 -16 -37 -30 -45 -30 -19 0 -19
39 0 64 8 11 15 28 15 38 0 21 -32 38 -37 21 -2 -6 -13 -21 -24 -34 -10 -12
-19 -29 -19 -38 -1 -14 -3 -13 -15 2 -9 13 -20 17 -36 12 -20 -7 -21 -5 -16
24 9 44 -17 41 -68 -7 -51 -48 -95 -82 -106 -82 -5 0 -9 13 -9 29 0 44 -18 47
-56 10 -33 -32 -38 -32 -35 4 4 32 -27 31 -56 -4 l-28 -33 -5 39 c-7 52 -32
54 -44 3 -19 -78 -32 -27 -26 103 4 98 -61 61 -67 -38 -6 -86 -11 -103 -28
-97 -8 4 -15 13 -15 21 0 8 -12 35 -27 60 -25 43 -27 44 -40 27 -10 -14 -12
-34 -7 -71 4 -35 3 -53 -4 -53 -6 0 -13 8 -16 18 -7 21 -43 45 -56 37 -6 -4
-10 -15 -10 -26 0 -25 -20 -25 -27 1 -9 33 -37 20 -41 -18 -4 -36 -9 -38 -49
-18 -55 27 -104 39 -116 27 -18 -18 -33 -13 -102 35 -37 25 -73 43 -81 40 -18
-7 -18 -20 1 -36 22 -18 18 -30 -10 -30 -14 0 -25 -4 -25 -10 0 -17 -20 -11
-43 13 -29 30 -72 57 -92 57 -8 0 -15 -2 -15 -4 0 -8 29 -59 37 -65 4 -3 16
-21 25 -39 l17 -32 -24 6 c-15 4 -25 2 -25 -5 0 -16 -21 -13 -63 9 -43 23 -57
19 -57 -16 0 -15 -6 -24 -15 -24 -8 0 -15 4 -15 9 0 15 -38 23 -56 13 -10 -6
-29 -4 -53 4 -34 12 -82 19 -53 7 6 -2 12 -12 12 -20 0 -9 8 -22 18 -29 9 -8
12 -14 5 -14 -7 0 -31 18 -55 41 -37 35 -47 40 -74 34 -27 -5 -35 -1 -53 22
-11 16 -24 33 -29 38 -4 6 -19 25 -32 43 -25 33 -60 43 -60 17 0 -31 -28 -13
-70 45 -24 33 -49 60 -57 60 -7 0 -13 5 -13 10 0 6 -7 10 -15 10 -9 0 -15 -9
-15 -25 0 -32 -5 -32 -54 8 -64 53 -83 61 -95 40 -9 -17 -10 -17 -28 0 -11 9
-27 17 -35 17 -9 0 -21 7 -28 15 -7 8 -16 15 -21 15 -5 0 -27 11 -49 25 -41
26 -75 32 -85 15 -9 -14 -37 -12 -73 6 -50 24 -232 14 -298 -17 -48 -24 -49
-25 -63 -89 -7 -36 -15 -110 -18 -165 -2 -55 -8 -110 -15 -122 -6 -12 -8 -34
-4 -50 4 -15 10 -44 13 -63 3 -19 12 -43 21 -52 14 -16 13 -20 -3 -38 -16 -18
-17 -21 -1 -44 9 -14 16 -41 16 -60 0 -19 6 -41 13 -48 7 -7 16 -20 20 -28 4
-8 16 -30 28 -49 11 -18 18 -39 16 -46 -3 -6 13 -35 35 -64 39 -51 43 -68 24
-111 -9 -22 69 -111 151 -173 67 -50 103 -83 103 -92 0 -3 -18 -5 -39 -5 -40
0 -61 -13 -41 -25 16 -10 12 -21 -15 -33 -32 -15 -32 -28 3 -40 l27 -10 -27
-1 c-36 -1 -39 -37 -5 -50 13 -5 29 -16 36 -25 16 -19 11 -20 -55 -17 -50 3
-78 -21 -44 -39 27 -14 16 -32 -15 -24 -29 7 -65 -3 -65 -19 1 -17 40 -43 79
-52 25 -5 30 -10 20 -16 -8 -5 -24 -9 -37 -9 -31 0 -104 -38 -97 -50 4 -6 30
-10 60 -10 30 0 56 -4 59 -9 9 -15 -140 -100 -190 -108 -57 -10 -79 -36 -50
-58 11 -8 18 -16 15 -17 -2 -2 -13 -9 -24 -16 -11 -7 -31 -17 -45 -22 -28 -11
-54 -46 -45 -60 3 -6 16 -5 31 0 33 13 71 13 59 1 -17 -17 -105 -61 -121 -61
-9 0 -25 -6 -37 -12 -12 -7 -44 -17 -72 -23 -27 -5 -49 -14 -48 -20 5 -17 65
-27 124 -22 64 6 100 -7 50 -18 -17 -3 -33 -11 -36 -16 -4 -5 -18 -9 -33 -9
-42 0 -72 -11 -72 -26 0 -8 11 -14 28 -15 28 0 77 -17 54 -18 -23 -2 -122 -50
-122 -60 0 -5 -10 -11 -22 -13 -35 -5 -34 -28 1 -28 17 0 31 5 31 10 0 6 13
10 30 10 29 0 103 33 128 57 17 17 55 17 50 1 -3 -7 -15 -14 -27 -16 -12 -2
-50 -30 -85 -63 -35 -32 -69 -59 -75 -59 -15 0 -14 -27 2 -33 6 -2 9 -8 4 -12
-4 -5 -13 -3 -19 3 -17 17 -38 15 -38 -3 0 -8 5 -15 10 -15 6 0 10 -4 10 -10
0 -5 -9 -10 -21 -10 -31 0 -61 -20 -55 -36 3 -9 -1 -17 -12 -20 -9 -3 -30 -11
-47 -19 -16 -7 -46 -16 -66 -19 -24 -4 -40 -14 -49 -31 -17 -32 -8 -41 27 -27
38 14 171 23 178 12 3 -5 -7 -13 -22 -16 -35 -9 -72 -35 -73 -51 0 -15 16 -17
25 -3 3 5 18 10 33 10 26 0 24 -3 -31 -55 -31 -31 -57 -62 -57 -70 0 -17 16
-20 25 -5 3 5 16 10 29 10 12 0 31 7 42 15 22 17 44 19 44 5 0 -5 -7 -10 -15
-10 -8 0 -15 -5 -15 -10 0 -14 30 -25 39 -14 10 15 63 49 113 73 27 13 50 26
53 31 2 4 18 10 35 13 16 4 30 11 30 17 0 15 -62 11 -84 -5 -22 -17 -116 -21
-116 -5 0 6 11 15 25 20 14 6 25 17 25 28 0 11 17 31 40 47 49 34 52 55 8 56
-22 1 -26 3 -13 6 11 3 27 11 35 18 8 8 27 18 43 24 36 14 35 31 -2 31 -31 0
-52 17 -29 24 26 8 44 17 73 36 17 11 40 24 53 30 24 10 22 30 -4 30 -8 0 -26
-7 -39 -16 -14 -9 -32 -13 -42 -9 -17 6 -16 7 2 17 11 6 42 31 70 55 27 24 55
43 62 43 20 0 15 18 -7 30 -23 12 -18 32 13 45 30 13 28 39 -3 43 -57 6 -75
13 -59 23 7 5 23 9 35 9 11 0 34 6 50 14 16 7 48 22 71 32 47 21 55 40 21 53
-18 6 -8 11 47 21 78 14 124 34 143 61 7 11 24 19 38 19 19 0 25 5 22 18 -3
14 -17 18 -75 22 -39 3 -74 8 -77 11 -4 3 38 9 91 12 54 3 107 9 117 13 17 6
16 10 -15 35 -19 15 -31 30 -28 33 3 4 61 1 129 -4 81 -7 126 -8 133 -1 6 6
-1 12 -22 18 -46 12 -38 28 16 31 26 2 55 10 65 19 13 11 29 13 67 8 59 -8 91
0 91 23 0 14 10 17 53 17 49 0 79 17 40 23 -41 7 -156 65 -161 82 -5 14 8 12
90 -11 37 -10 51 -10 60 -1 8 8 5 14 -16 22 -36 13 -24 30 20 30 20 0 43 7 51
16 9 8 23 13 32 10 51 -16 108 -37 123 -46 22 -13 48 -13 48 -1 0 5 -16 23
-36 39 -49 41 -26 51 34 15 59 -36 107 -56 123 -51 15 5 -46 67 -78 79 -14 5
-23 17 -23 29 0 25 2 25 69 0 29 -12 61 -18 71 -15 10 3 28 0 39 -7 26 -16 39
-3 22 23 -18 30 -6 35 24 11 15 -12 34 -18 46 -15 13 4 25 -1 34 -13 13 -18
14 -18 20 -1 11 26 26 21 72 -23 23 -23 44 -36 48 -30 11 18 24 11 31 -17 4
-16 14 -38 22 -50 18 -29 9 -57 -17 -48 -26 8 -34 -8 -16 -31 8 -10 15 -26 15
-36 0 -9 6 -18 13 -21 6 -2 9 -7 5 -11 -3 -4 -18 0 -32 9 -14 10 -33 14 -42
11 -9 -4 -26 0 -38 7 -12 8 -36 18 -54 21 -45 10 -43 -14 5 -45 44 -28 42 -45
-5 -41 -19 2 -31 -1 -29 -5 3 -5 2 -15 -2 -22 -7 -11 -19 -10 -64 3 -103 30
-223 13 -332 -47 -27 -15 -61 -34 -75 -41 -52 -29 -102 -46 -130 -46 -34 0
-47 -15 -24 -28 24 -13 8 -32 -26 -32 -45 0 -63 -10 -49 -26 19 -24 2 -28 -55
-14 -60 14 -91 6 -60 -17 32 -24 -1 -35 -83 -28 -60 6 -73 4 -73 -8 0 -8 10
-21 22 -29 22 -15 22 -15 -13 -32 -19 -10 -70 -20 -117 -23 -53 -4 -81 -10
-79 -17 2 -6 13 -12 25 -14 12 -2 27 -12 32 -23 9 -16 7 -21 -15 -29 -15 -6
-38 -10 -53 -10 -35 0 -72 -10 -72 -20 0 -4 15 -11 33 -15 l32 -7 -40 -9 c-22
-5 -49 -14 -60 -19 -11 -5 -37 -13 -58 -17 -61 -13 -48 -28 30 -34 84 -6 101
-15 47 -24 -22 -4 -52 -9 -69 -12 l-30 -6 25 -8 c14 -4 38 -10 55 -14 28 -6
29 -7 10 -18 -12 -7 -59 -12 -113 -11 -91 1 -108 -6 -81 -33 16 -16 -50 -53
-95 -53 -25 0 -36 -4 -36 -15 0 -12 13 -15 60 -15 47 0 60 -3 60 -15 0 -8 -5
-15 -10 -15 -6 0 -19 -9 -30 -20 -19 -19 -19 -22 -4 -45 19 -29 35 -31 70 -9
17 12 28 14 35 7 17 -17 -68 -56 -107 -48 -26 4 -38 1 -54 -15 -11 -11 -28
-20 -38 -20 -10 0 -27 -7 -38 -15 -10 -8 -26 -15 -34 -15 -25 0 -252 -119
-278 -145 -30 -31 -15 -38 37 -18 48 19 62 12 36 -18 -17 -17 -17 -22 -5 -29
16 -11 79 -3 94 11 16 14 46 10 52 -6 8 -19 31 -19 68 0 46 24 116 15 76 -10
-17 -11 0 -25 29 -25 16 0 42 7 57 15 16 8 37 15 46 15 9 0 20 5 23 10 3 6 15
10 27 10 15 0 7 -9 -29 -34 -26 -18 -57 -36 -68 -39 -26 -9 -50 -46 -37 -59 6
-6 12 -6 16 1 4 6 31 11 60 11 29 0 79 9 111 20 32 11 61 18 63 15 9 -9 -50
-55 -96 -75 -12 -5 -35 -21 -49 -34 -24 -23 -25 -26 -9 -32 20 -7 163 24 172
37 3 5 13 9 22 9 12 0 13 -3 4 -12 -16 -16 -15 -48 1 -48 7 0 22 7 33 15 31
24 45 17 20 -10 -24 -26 -50 -32 -61 -15 -5 8 -11 8 -19 0 -9 -7 -108 -9 -292
-8 -194 2 -285 0 -298 -8 -19 -11 -19 -12 0 -18 55 -17 355 -40 584 -46 41 -1
50 -3 34 -10 -12 -4 -34 -20 -49 -34 -24 -22 -25 -27 -11 -32 10 -4 22 -2 29
5 6 6 26 11 45 11 l35 0 -39 -26 c-48 -33 -104 -88 -104 -103 0 -16 31 -12 65
9 17 11 46 27 65 37 19 9 38 19 43 21 12 6 8 -16 -6 -30 -8 -7 -22 -31 -33
-53 -19 -41 -34 -58 -99 -110 -21 -16 -61 -51 -89 -77 -28 -26 -54 -48 -58
-48 -5 0 -8 -7 -8 -15 0 -8 -6 -15 -14 -15 -16 0 -31 -18 -22 -27 7 -8 86 31
111 54 85 79 204 153 360 222 28 12 58 26 67 32 27 14 33 11 17 -8 -9 -10 -32
-50 -52 -90 -20 -39 -46 -88 -57 -108 -25 -44 -25 -45 -1 -45 10 0 41 18 69
40 27 22 53 40 58 40 4 0 15 7 25 16 36 33 38 7 4 -44 -19 -30 -35 -56 -35
-59 0 -2 -11 -19 -25 -37 -32 -42 -32 -58 0 -50 21 5 25 3 25 -15 0 -12 -5
-30 -12 -41 -16 -25 -3 -38 22 -22 18 11 20 9 20 -17 0 -16 -7 -42 -15 -57 -8
-16 -15 -39 -15 -51 0 -13 -4 -23 -9 -23 -5 0 -13 -10 -17 -22 -4 -13 -20 -40
-36 -60 -30 -38 -24 -56 14 -50 14 3 18 -4 18 -27 0 -16 -4 -33 -10 -36 -12
-7 -14 -45 -2 -45 15 1 48 36 86 93 22 31 43 57 47 57 5 0 6 -35 2 -77 -5 -68
-3 -83 17 -121 22 -42 53 -68 69 -58 5 3 11 29 15 58 4 28 9 55 12 59 8 14 34
-3 34 -21 0 -20 161 -190 179 -190 19 0 23 21 8 44 -17 26 -34 136 -21 135 5
0 25 -20 44 -45 41 -51 82 -78 97 -63 7 7 17 -5 32 -38 58 -126 73 -169 78
-218 6 -65 13 -85 26 -85 12 0 28 30 76 142 9 22 23 38 33 38 9 0 21 7 26 16
5 9 18 14 28 12 16 -3 19 -12 18 -68 -1 -36 -7 -86 -14 -113 -11 -37 -11 -50
-1 -60 9 -9 18 -5 39 20 48 57 62 77 62 90 0 7 4 13 8 13 12 0 32 -47 32 -75
0 -26 24 -55 45 -55 10 0 15 17 17 58 2 31 7 56 12 55 5 0 19 -18 30 -40 62
-114 183 -281 251 -345 28 -26 31 -27 42 -11 11 13 10 21 -2 39 -8 13 -15 37
-15 54 0 17 -7 65 -16 106 -19 95 -15 108 16 49 14 -26 31 -57 38 -70 21 -40
124 -125 150 -125 21 0 24 4 19 27 -4 20 1 31 19 45 13 11 29 38 36 61 l13 42
5 -50 c6 -55 26 -67 46 -27 18 36 134 152 134 134 0 -20 -32 -122 -55 -175
-15 -37 -15 -38 3 -33 11 4 46 32 78 64 74 72 126 111 185 140 26 12 52 29 59
37 17 21 37 19 50 -4 16 -31 13 -217 -5 -244 -14 -22 -11 -67 6 -67 4 0 25 21
46 46 21 25 53 62 71 82 18 20 49 58 69 84 40 52 56 54 43 7 -10 -33 -4 -60
17 -72 7 -4 13 -15 13 -22 0 -8 6 -15 14 -15 13 0 229 155 266 191 8 8 27 22
42 32 l28 17 -7 -32 c-3 -18 -6 -35 -5 -38 1 -46 40 -41 71 10 14 22 46 63 71
91 l47 52 24 -49 c27 -56 40 -60 53 -18 5 16 15 43 22 61 8 17 14 40 14 51 0
80 46 93 108 32 22 -22 44 -40 50 -40 6 0 21 21 32 48 18 39 22 69 23 178 2
114 4 130 17 121 27 -17 100 -112 121 -157 11 -25 29 -63 40 -86 10 -23 19
-46 19 -53 0 -6 7 -11 16 -11 13 0 15 10 10 63 -12 123 -18 357 -9 357 19 0
33 -25 33 -60 1 -19 7 -46 15 -60 8 -14 14 -37 15 -51 0 -15 7 -33 16 -40 15
-12 19 -10 33 10 27 40 51 114 51 154 0 40 15 50 25 17 8 -27 43 -46 58 -31 7
7 7 17 0 33 -11 25 -31 109 -40 173 l-5 39 42 -49 c49 -57 70 -74 88 -75 14 0
16 33 2 58 -5 9 -16 35 -25 57 -9 22 -27 64 -41 93 -17 37 -20 52 -11 52 7 0
17 -4 23 -9 8 -9 25 -14 129 -40 183 -45 205 -47 205 -17 0 7 -19 26 -42 43
-55 39 -102 83 -90 83 5 0 26 -7 45 -15 48 -20 196 -20 223 -1 18 14 17 15
-19 31 -30 12 -36 19 -28 29 12 15 5 26 -18 26 -15 1 -71 43 -71 55 0 3 20 5
45 5 33 0 45 4 45 15 0 8 -8 15 -18 15 -11 0 -29 9 -42 20 -13 11 -28 20 -35
20 -13 0 -45 32 -45 44 0 10 68 -4 99 -20 14 -8 33 -14 41 -14 8 0 24 -7 34
-15 11 -8 28 -15 38 -15 10 0 18 -4 18 -8 0 -4 26 -20 58 -35 31 -16 71 -36
87 -47 29 -18 75 -27 75 -14 0 15 -101 94 -120 94 -5 0 -10 3 -10 8 0 4 -24
18 -52 32 -29 13 -55 27 -58 31 -3 4 -37 24 -75 44 -39 20 -83 45 -100 56 -16
10 -42 24 -57 30 -16 6 -28 15 -28 20 0 5 -9 9 -19 9 -11 0 -26 7 -35 15 -8 8
-21 15 -28 15 -7 0 -22 6 -33 14 -11 7 -32 16 -47 20 -16 3 -28 11 -28 16 0 6
-11 10 -24 10 -14 0 -31 7 -40 15 -8 8 -25 15 -38 15 -13 0 -33 7 -44 15 -10
8 -30 15 -44 15 -36 0 -70 11 -70 21 0 15 65 10 86 -6 10 -8 33 -15 50 -15 16
0 39 -7 50 -15 10 -8 29 -15 40 -15 12 0 27 -7 34 -15 7 -8 23 -15 35 -15 12
0 28 -7 35 -15 7 -8 20 -15 30 -15 10 0 23 -6 29 -14 7 -8 23 -17 36 -20 14
-4 25 -11 25 -16 0 -6 8 -10 19 -10 10 0 24 -7 31 -15 7 -8 20 -15 30 -15 9 0
43 -9 75 -20 32 -11 73 -20 91 -20 18 0 45 -5 59 -12 14 -6 28 -8 31 -5 11 11
-6 56 -24 62 -23 8 -85 65 -78 72 3 3 12 0 20 -6 17 -14 85 -11 89 4 1 6 -8
11 -19 13 -12 2 -30 12 -40 23 -9 10 -21 19 -27 19 -12 0 -87 59 -87 69 0 10
48 3 78 -12 16 -8 25 -8 34 1 8 8 1 19 -27 44 -76 66 -88 78 -82 84 3 4 27 -1
53 -10 26 -9 59 -16 73 -16 14 0 45 -7 69 -15 44 -16 92 -11 92 9 0 6 -21 23
-48 38 -41 24 -44 27 -21 28 14 0 40 -7 56 -15 29 -15 63 -12 63 5 0 12 -177
115 -242 141 -29 11 -38 29 -15 29 7 0 22 -7 33 -15 10 -8 25 -15 33 -15 8 0
35 -10 60 -21 93 -43 152 -62 173 -54 8 3 21 -1 28 -9 14 -17 30 -12 30 9 0
21 -123 140 -194 189 -56 37 -51 38 141 6 76 -13 127 -7 120 13 -2 6 -18 16
-35 21 -18 5 -32 12 -32 17 0 4 -14 10 -30 14 -36 8 -30 25 9 25 28 0 61 26
61 48 0 6 -12 15 -27 18 -16 4 -37 13 -48 20 -11 8 -27 14 -36 14 -10 0 -19 4
-21 8 -1 5 -15 15 -30 23 -14 8 -47 25 -72 38 -72 38 -61 51 42 48 85 -2 120
11 67 25 -14 3 -32 13 -41 22 -8 9 -25 16 -37 16 -20 1 -67 31 -67 43 0 3 9 7
20 9 36 5 27 23 -15 29 -43 5 -85 25 -85 38 0 12 98 61 121 61 25 0 24 19 -4
53 -16 20 -34 30 -65 34 -79 11 -44 37 62 46 38 4 79 13 92 22 13 8 36 15 51
15 15 0 35 5 43 10 10 7 -34 9 -140 6 -148 -5 -152 -5 -80 7 41 7 86 18 100
24 14 6 33 14 43 17 9 3 17 10 17 16 0 6 -41 10 -107 11 -140 0 -192 10 -298
55 -89 38 -105 46 -105 54 0 5 28 10 63 12 34 2 61 7 60 13 -1 6 -28 15 -59
20 -60 10 -72 22 -55 53 9 17 3 19 -62 30 -40 7 -85 13 -102 14 l-30 3 43 29
c57 39 43 52 -53 48 -90 -3 -108 13 -21 20 62 5 106 28 106 54 0 17 -24 24
-93 25 -56 1 -59 2 -32 11 35 12 77 47 70 59 -3 4 -30 11 -60 14 -54 7 -69 17
-41 28 7 3 16 21 20 40 4 19 13 40 21 47 25 20 7 30 -55 30 -69 0 -84 14 -48
44 33 27 44 61 23 70 -24 9 -17 33 15 53 17 9 30 23 30 30 0 18 -30 16 -52 -4
-11 -10 -22 -13 -28 -7 -6 6 16 35 55 78 36 37 65 69 65 71 0 2 21 25 46 51
39 42 43 50 30 60 -21 15 -20 24 1 24 9 0 33 18 54 40 34 36 37 43 26 60 -9
16 -9 24 1 38 7 9 15 24 19 32 4 8 13 21 20 28 7 7 13 19 13 27 0 7 7 15 15
19 8 3 15 12 15 21 0 8 5 15 10 15 16 0 12 27 -5 34 -17 6 -10 63 12 84 7 7
13 23 13 36 0 12 5 27 11 33 8 8 8 17 -1 33 -9 17 -8 28 4 55 21 43 22 180 2
188 -14 6 -46 92 -46 126 0 11 -6 35 -14 53 -43 101 -62 138 -68 138 -5 0 -8
5 -8 12 0 7 -12 23 -27 35 -24 21 -36 23 -144 23 -68 0 -120 4 -124 10 -9 14
-42 12 -48 -2 -3 -10 -9 -10 -26 0 -24 14 -28 15 -33 5z m319 -75 c40 -18 66
-47 87 -98 10 -25 24 -57 32 -72 8 -14 14 -39 14 -55 0 -16 7 -38 15 -49 9
-12 14 -44 15 -92 0 -40 6 -81 12 -92 10 -16 10 -24 0 -40 -6 -11 -12 -33 -12
-49 0 -16 -5 -42 -11 -58 -6 -15 -15 -44 -19 -63 -5 -19 -18 -60 -29 -90 -12
-30 -21 -65 -21 -78 0 -25 -15 -59 -37 -80 -7 -7 -13 -25 -13 -39 0 -16 -11
-37 -28 -52 -45 -42 -83 -97 -77 -113 4 -10 -13 -32 -46 -62 -44 -40 -57 -46
-81 -41 -17 4 -28 2 -28 -4 0 -6 -4 -11 -10 -11 -12 0 -14 27 -2 32 8 3 147
187 169 223 31 52 112 225 127 270 49 154 63 350 30 437 -47 124 -97 202 -138
218 -51 19 -189 4 -271 -30 -16 -7 -46 -19 -65 -27 -48 -20 -164 -77 -170 -84
-3 -3 -23 -16 -45 -29 -22 -13 -42 -27 -45 -30 -3 -4 -30 -25 -60 -47 -30 -23
-84 -66 -120 -97 -36 -31 -71 -56 -77 -56 -18 0 -16 25 2 40 8 7 15 19 15 26
0 8 -7 14 -15 14 -8 0 -15 -7 -15 -15 0 -8 -4 -15 -10 -15 -33 0 43 117 81
125 14 3 39 19 54 35 16 17 35 30 42 30 7 0 13 4 13 9 0 9 107 81 120 81 5 0
35 13 67 29 82 41 129 61 145 61 8 0 18 4 24 10 29 29 328 51 381 28z m-4032
-264 c11 -7 47 -20 80 -29 52 -16 93 -32 190 -76 11 -5 32 -17 47 -27 14 -9
48 -30 75 -46 74 -44 130 -93 147 -128 25 -49 19 -52 -26 -14 -40 35 -68 46
-68 27 0 -6 4 -12 9 -16 10 -6 36 -52 52 -94 9 -21 7 -23 -15 -19 -17 3 -23 1
-19 -8 3 -7 2 -18 -2 -24 -4 -6 -43 28 -93 81 -74 79 -186 173 -257 216 -144
88 -334 140 -419 116 -47 -14 -66 -93 -67 -280 0 -154 1 -161 49 -323 29 -95
118 -235 211 -333 41 -43 44 -49 29 -58 -22 -12 -23 -32 -3 -49 8 -7 15 -19
15 -27 0 -23 -43 -11 -56 15 -6 13 -27 34 -45 47 -90 65 -83 58 -60 67 26 9
27 22 3 45 -10 10 -34 50 -53 88 -19 39 -46 88 -61 109 -16 21 -28 47 -28 57
0 10 -5 21 -10 24 -6 4 -8 21 -4 40 6 33 -9 93 -33 130 -19 29 -18 343 1 370
7 11 17 36 21 55 4 19 14 46 22 58 15 24 16 24 181 20 96 -2 176 -8 187 -14z
m2214 -1301 c1 -69 15 -104 27 -66 10 33 65 137 78 151 5 4 5 -20 1 -53 l-6
-60 20 25 c20 24 22 24 32 6 9 -14 13 -15 19 -5 5 8 3 17 -7 24 -12 9 -13 16
-5 31 10 19 11 19 18 -1 4 -11 14 -25 21 -30 15 -11 8 -45 -8 -45 -5 0 -9 -11
-9 -25 0 -30 20 -33 27 -5 3 11 12 20 19 20 16 0 19 -36 4 -45 -5 -3 -10 -16
-10 -28 1 -20 2 -21 14 -4 7 9 18 17 25 17 16 0 13 -27 -4 -34 -8 -3 -15 -13
-15 -22 0 -10 -6 -25 -13 -33 -13 -15 -27 -49 -63 -143 -9 -24 -22 -58 -30
-76 -8 -18 -14 -41 -14 -52 0 -25 -15 -33 -30 -15 -19 22 -29 9 -36 -45 -4
-28 -11 -50 -16 -50 -6 0 -22 13 -38 29 -18 20 -30 27 -37 20 -15 -15 -43 1
-49 30 -3 14 -11 40 -17 56 -7 17 -12 77 -12 135 0 99 1 106 25 130 25 24 40
77 66 235 9 59 22 19 23 -72z m-762 39 c7 -7 13 -19 13 -25 1 -7 12 -25 26
-42 l25 -30 -6 55 -7 55 24 -35 c13 -19 27 -43 31 -53 11 -30 24 -11 31 45 9
67 18 52 41 -72 14 -72 26 -104 48 -134 29 -37 29 -41 23 -116 -3 -43 -10 -91
-15 -106 -5 -16 -12 -46 -16 -67 -5 -32 -9 -37 -25 -32 -15 5 -21 0 -26 -22
-4 -15 -16 -38 -27 -51 l-21 -22 -23 27 c-12 16 -22 40 -23 56 0 29 -17 37
-26 12 -4 -8 -10 -15 -15 -15 -13 0 -40 68 -49 125 -11 66 -29 133 -45 170
-28 64 -50 110 -56 115 -12 11 -18 40 -9 45 5 3 12 -6 16 -20 3 -14 12 -25 19
-25 7 0 15 -10 19 -22 4 -18 8 -20 17 -11 10 10 9 17 -4 31 -9 10 -17 26 -17
35 0 9 -7 32 -16 51 -10 21 -14 41 -9 53 6 16 9 14 21 -13 13 -30 62 -79 71
-70 2 2 -1 28 -7 57 -6 30 -13 68 -16 84 l-4 30 12 -25 c7 -14 18 -31 25 -38z
m1380 -110 c-82 -82 -102 -112 -76 -112 6 0 31 14 56 30 24 17 47 30 50 30 3
0 12 8 19 18 10 13 15 14 24 5 9 -8 7 -14 -9 -22 -12 -7 -21 -18 -21 -26 0 -8
-7 -15 -16 -15 -8 0 -13 -4 -9 -9 3 -6 17 -4 33 4 68 34 115 48 164 49 70 1
89 -11 57 -35 -36 -27 -15 -42 42 -30 87 19 147 36 155 44 4 4 17 7 28 7 18
-1 17 -3 -7 -16 -36 -19 -26 -34 24 -34 40 0 53 -16 22 -27 -43 -14 -103 -46
-103 -54 0 -5 30 -9 68 -9 43 -1 74 -6 86 -15 11 -8 41 -15 66 -15 26 0 61 -7
79 -16 30 -15 34 -15 50 0 21 19 65 22 59 4 -3 -7 -17 -14 -31 -16 -15 -2 -27
-7 -27 -12 0 -5 -15 -13 -32 -18 -55 -14 -41 -36 27 -44 33 -4 66 -10 73 -13
25 -9 6 -30 -33 -35 -21 -3 -40 -11 -43 -18 -4 -14 36 -13 146 4 34 5 42 3 42
-9 0 -9 -15 -20 -33 -26 -29 -10 -67 -42 -67 -56 0 -3 9 -1 19 5 11 5 41 10
67 10 26 0 71 7 99 16 55 18 124 12 94 -7 -7 -5 -29 -9 -47 -9 -26 0 -33 -4
-30 -17 3 -16 32 -30 108 -51 l35 -9 -30 -12 c-40 -17 -17 -31 52 -31 62 0 91
-9 71 -21 -7 -5 -27 -9 -45 -9 -33 0 -51 -14 -33 -25 6 -4 68 -10 138 -14 111
-7 118 -8 52 -11 -87 -3 -134 -11 -134 -24 -1 -12 101 -45 144 -47 19 0 46 -4
60 -8 25 -7 24 -7 -10 -20 -31 -11 -33 -14 -15 -21 11 -5 38 -12 60 -15 35 -6
37 -8 20 -18 -11 -6 -46 -10 -77 -9 -55 2 -87 -13 -51 -24 10 -3 30 -12 45
-20 14 -8 36 -14 48 -14 13 0 20 -5 18 -12 -3 -8 -29 -15 -63 -18 -34 -3 -60
-10 -63 -17 -2 -7 4 -13 15 -13 10 0 31 -7 47 -15 15 -8 40 -15 55 -16 14 0
35 -4 45 -8 18 -7 18 -8 -5 -14 -13 -4 -33 -7 -44 -7 -22 0 -49 -35 -40 -50 4
-6 16 -10 28 -10 12 -1 35 -12 52 -25 31 -26 29 -28 -32 -39 -18 -3 -47 -9
-63 -12 -18 -4 -36 -1 -45 6 -8 7 -40 22 -72 35 l-57 23 32 9 c33 8 46 27 21
30 -105 14 -113 16 -94 24 11 4 49 8 85 8 36 1 71 5 78 10 19 12 -27 40 -85
50 -54 11 -83 39 -58 57 18 14 20 34 3 34 -7 0 -22 -7 -32 -15 -28 -21 -244
-21 -272 0 -10 8 -29 15 -41 15 -22 0 -44 21 -27 27 5 2 16 8 24 13 27 18 -24
50 -80 50 -79 0 -109 22 -47 34 51 10 14 26 -63 26 -78 0 -110 14 -62 27 42
10 45 27 7 31 -59 5 -75 13 -90 42 -20 39 -19 47 8 56 17 6 11 9 -32 15 -29 4
-68 15 -87 25 -28 16 -38 16 -67 6 -47 -17 -65 -15 -77 8 -13 25 -65 53 -108
60 -41 6 -42 23 -2 30 38 6 44 24 10 28 -14 2 -33 11 -43 20 -9 8 -36 19 -60
23 -23 4 -55 11 -71 15 -15 4 -59 1 -96 -6 -73 -14 -120 -8 -120 15 0 8 9 19
20 25 11 6 20 15 20 20 0 15 -42 11 -64 -5 -17 -13 -22 -13 -38 2 -17 15 -21
14 -59 -16 -42 -34 -62 -34 -41 0 10 16 10 20 -3 25 -19 8 -19 54 0 80 19 25
19 44 0 44 -8 0 -15 -7 -15 -15 0 -8 -4 -15 -9 -15 -18 0 -20 17 -6 36 8 10
15 25 15 33 0 14 35 60 104 136 35 38 37 39 42 18 8 -28 20 -29 34 -3 17 31
33 25 27 -10 -8 -40 10 -39 51 1 23 23 32 27 32 15 0 -9 -4 -16 -10 -16 -5 0
-10 -7 -10 -15 0 -24 29 -18 70 15 21 17 43 30 49 30 6 0 11 5 11 10 0 6 8 10
17 10 11 0 -14 -32 -70 -88z m605 -104 c-6 -6 -16 -7 -22 -3 -9 6 -9 9 1 16
17 10 34 0 21 -13z m53 -88 c-3 -5 -12 -10 -20 -10 -8 0 -17 5 -20 10 -4 6 5
10 20 10 15 0 24 -4 20 -10z m-2481 -445 c1 -57 6 -76 24 -99 27 -35 83 -66
118 -66 43 0 111 38 146 81 l32 40 18 -23 c22 -28 22 -37 3 -75 -28 -56 -90
-97 -198 -129 -50 -15 -64 -16 -105 -5 -143 37 -210 135 -187 273 11 65 29 79
93 76 l55 -3 1 -70z m186 50 c0 -30 -24 -43 -45 -25 -19 16 -2 50 25 50 15 0
20 -7 20 -25z m1480 5 c13 -25 5 -40 -20 -40 -24 0 -33 15 -25 40 8 26 31 26
45 0z m248 -13 c21 -16 15 -130 -9 -177 -41 -78 -140 -140 -224 -140 -65 0
-165 42 -206 87 -65 71 -77 123 -36 161 25 23 37 20 37 -9 0 -26 56 -87 101
-110 47 -24 111 -25 146 -2 14 10 39 35 54 57 23 31 29 50 29 91 0 28 3 55 7
58 8 9 85 -3 101 -16z m-1328 -380 c0 -7 -7 -23 -16 -36 -14 -19 -14 -25 -3
-32 8 -5 21 -6 31 -3 21 6 68 -40 68 -66 0 -25 19 -26 36 -2 23 31 28 -12 10
-86 -9 -37 -16 -75 -16 -84 0 -9 -16 -30 -36 -45 -114 -87 -159 -154 -189
-281 -16 -69 -16 -76 -1 -117 21 -55 89 -125 149 -153 60 -28 162 -62 186 -62
11 0 23 -5 27 -11 8 -13 -42 -67 -70 -74 -12 -3 -43 -12 -71 -20 -63 -17 -182
-35 -238 -35 -47 0 -186 27 -202 39 -5 5 -21 11 -35 15 -14 3 -36 15 -50 25
-20 16 -23 22 -12 32 6 7 12 17 12 21 0 11 -38 10 -45 -2 -9 -15 -75 -43 -83
-36 -3 4 0 11 8 16 12 7 12 12 0 34 -7 14 -21 26 -31 26 -12 0 -23 15 -34 51
-10 28 -24 53 -34 56 -21 8 -31 23 -31 49 0 23 -17 34 -53 35 -21 0 -21 1 2
10 35 14 51 40 45 70 -4 23 -1 28 25 37 25 9 31 17 37 57 3 26 13 49 20 52 8
3 14 16 14 29 0 13 9 28 20 34 11 6 20 17 20 26 0 8 21 28 47 44 50 32 143
123 143 141 0 5 15 16 34 24 34 15 96 79 96 101 0 6 25 33 55 59 47 40 61 46
85 42 23 -5 30 -2 35 13 7 22 45 28 45 7z m625 -17 c3 -5 17 -10 30 -10 17 0
48 -24 102 -77 43 -43 100 -95 126 -116 26 -21 56 -56 67 -77 11 -21 46 -60
78 -86 64 -53 112 -113 112 -139 0 -9 13 -21 30 -26 32 -12 35 -16 21 -37 -5
-9 -18 -11 -37 -6 l-29 6 38 -32 c20 -17 37 -40 37 -51 0 -30 18 -59 43 -69
19 -8 17 -9 -13 -9 -20 -1 -41 4 -47 10 -8 8 -13 8 -18 0 -3 -6 1 -14 9 -17
23 -9 20 -51 -5 -64 -27 -15 -9 -37 34 -43 21 -2 15 -4 -20 -5 -28 -1 -63 -6
-78 -12 -22 -9 -27 -7 -35 15 -11 29 -19 31 -45 12 -17 -13 -17 -15 3 -35 12
-12 22 -25 21 -29 0 -12 -189 -103 -235 -114 -21 -6 -57 -15 -79 -20 -62 -16
-313 -6 -351 14 -37 20 -69 53 -57 60 4 2 40 12 78 22 71 17 171 62 214 96 13
10 39 39 58 63 34 44 34 46 31 123 -4 70 -19 130 -41 158 -4 6 -21 29 -37 52
-17 24 -49 56 -73 73 -67 47 -75 58 -86 123 -6 34 -14 73 -18 86 -5 20 -3 22
13 17 14 -4 27 4 48 29 24 29 36 35 68 35 43 0 47 10 18 50 -11 15 -17 30 -13
34 10 9 31 7 38 -4z m-2620 -331 c4 -6 -2 -13 -14 -16 -26 -7 -28 -33 -2 -33
10 0 34 6 52 14 57 24 102 23 127 -2 23 -23 22 -42 -3 -42 -7 0 -15 -4 -17 -8
-5 -13 -79 -55 -85 -48 -3 3 1 14 10 24 23 25 21 32 -5 32 -19 0 -69 -21 -170
-71 -31 -16 -51 -11 -45 11 3 11 4 20 2 20 -2 0 -24 -9 -50 -20 -26 -11 -56
-20 -67 -20 -20 0 -20 1 -4 19 9 10 14 25 10 34 -4 12 2 18 20 23 14 3 30 12
37 20 6 8 22 14 34 14 13 0 36 7 51 15 16 8 37 15 47 15 10 0 25 7 33 15 18
18 30 19 39 4z m3945 -5 c0 -2 -15 -4 -32 -3 -27 0 -29 2 -13 8 18 8 45 4 45
-5z m-106 -23 c8 -12 -20 -22 -41 -14 -15 6 -15 7 3 14 26 10 32 10 38 0z
m-3108 -10 c-18 -7 -66 -3 -66 5 0 2 19 4 43 3 30 0 36 -3 23 -8z m138 -17
c44 -17 0 -31 -52 -17 -18 4 -20 8 -10 14 15 10 40 11 62 3z m2871 -4 c7 -11
-42 -26 -53 -16 -7 8 17 26 35 26 6 0 15 -4 18 -10z m-2737 -26 c33 -9 27 -24
-10 -24 -42 0 -78 10 -78 21 0 10 54 12 88 3z m2650 -6 c-5 -15 -68 -24 -68
-9 0 12 18 19 48 20 15 1 22 -4 20 -11z m-2534 -24 c28 -11 17 -24 -18 -24
-40 0 -66 8 -66 21 0 10 60 12 84 3z m2446 -3 c0 -11 -25 -21 -51 -21 -19 0
-25 11 -12 23 10 10 63 8 63 -2z m1210 -1 c8 -5 11 -12 8 -16 -10 -9 -38 3
-38 16 0 12 10 13 30 0z m-3541 -29 c10 -6 10 -10 1 -16 -16 -10 -82 4 -75 16
8 11 55 12 74 0z m2229 -3 c-6 -16 -33 -22 -56 -13 -14 5 -14 7 -2 15 22 14
62 12 58 -2z m-94 -27 c8 -12 -28 -21 -44 -11 -9 6 -8 9 6 13 30 8 33 7 38 -2z
m-2036 -8 c-10 -2 -26 -2 -35 0 -10 3 -2 5 17 5 19 0 27 -2 18 -5z m-429 -49
c43 -9 29 -24 -23 -24 -63 0 -111 11 -94 21 15 10 73 11 117 3z m231 -33 c24
-7 24 -8 -8 -15 -40 -9 -154 2 -146 15 6 11 118 10 154 0z m2762 -129 c9 -9
-42 -12 -232 -12 -257 0 -356 10 -220 21 128 11 438 5 452 -9z m174 -28 c18
-14 13 -15 -54 -11 -40 2 -79 10 -85 16 -19 19 115 14 139 -5z m-2978 -1 c-21
-2 -55 -2 -75 0 -21 2 -4 4 37 4 41 0 58 -2 38 -4z m226 -82 c7 -11 -28 -21
-80 -21 -23 0 -55 -7 -70 -15 -16 -8 -45 -15 -65 -15 -20 0 -56 -7 -79 -15
-23 -8 -63 -15 -89 -15 -25 0 -64 -7 -86 -15 -44 -16 -135 -20 -135 -6 0 11
36 21 80 21 19 0 53 7 75 15 22 8 59 14 81 15 23 0 58 7 77 15 20 8 61 15 91
15 29 0 67 7 82 15 32 16 110 20 118 6z m2161 -32 c22 -7 65 -13 95 -16 73 -5
100 -11 100 -23 0 -15 -99 -11 -145 5 -22 8 -70 15 -106 15 -77 0 -129 9 -129
21 0 13 137 11 185 -2z m-380 -28 c3 -5 1 -12 -4 -15 -12 -8 -41 3 -41 15 0
12 37 12 45 0z m54 -30 c9 -6 10 -11 2 -15 -13 -8 -31 1 -31 15 0 11 11 11 29
0z m645 0 c19 -7 19 -8 1 -14 -25 -10 -91 3 -73 14 16 10 46 10 72 0z m-3120
-30 c8 -13 -49 -24 -76 -15 -22 7 -22 7 -3 15 28 11 73 11 79 0z m2531 -2 c10
-14 1 -21 -19 -13 -9 3 -13 10 -10 15 7 12 21 11 29 -2z m-2670 -29 c4 -6 -6
-10 -22 -9 -25 0 -26 1 -8 9 11 5 21 9 22 9 1 1 5 -3 8 -9z"/>
<path d="M3450 2044 c0 -11 8 -14 32 -12 46 4 49 28 4 28 -26 0 -36 -4 -36
-16z"/>
</g>
</svg>
